<svg width="40" height="39" viewBox="0 0 40 39" fill="none" xmlns="http://www.w3.org/2000/svg">
<g clip-path="url(#clip0)">
<path d="M14.5798 30.875C14.6006 31.1496 14.6305 31.4064 14.6305 31.6875C14.6305 34.7149 13.4175 37.3831 11.533 39H18.033H21.283H27.783C25.898 37.3831 24.6857 34.7149 24.6857 31.6875C24.6857 31.4064 24.715 31.1496 24.7361 30.875H21.283H18.033H14.5798Z" fill="#314061"/>
<path d="M14.5798 30.875C14.6006 31.0375 14.6305 31.3625 14.6305 31.6875C14.6305 32.5 14.5555 33.3125 14.3767 34.125H24.9392C24.7605 33.3125 24.6857 32.5 24.6857 31.6875C24.6857 31.3625 24.715 31.0375 24.7361 30.875H21.283H18.033H14.5798Z" fill="white"/>
<path d="M1.78296 4.875C0.885504 4.875 0.157959 5.525 0.157959 6.5V8.125V11.375V14.625V17.875V19.5V21.125V22.75V26V29.25V30.875C0.157959 31.6875 0.885504 32.5 1.78296 32.5H3.40796H24.533H34.283H35.908H37.533C38.43 32.5 39.158 31.6875 39.158 30.875V29.25V17.875V16.25V14.625V11.375V8.125V6.5C39.158 5.525 38.43 4.875 37.533 4.875H35.908H27.783H26.158H11.533H5.03296H3.40796H1.78296Z" fill="#314061"/>
<path d="M37.533 6.5H1.78296V29.25H37.533V6.5Z" fill="#34495E"/>
<path d="M37.533 8.125L3.40796 29.25H35.2287H37.533V26.65V8.125Z" fill="#2C3E50"/>
</g>
<defs>
<clipPath id="clip0">
<rect width="39" height="39" fill="white" transform="translate(0.157959)"/>
</clipPath>
</defs>
</svg>
