<svg width="48" height="48" viewBox="0 0 48 48" fill="none" xmlns="http://www.w3.org/2000/svg">
<path d="M14.3439 35.8757L14.1421 35.8443L11.0203 35.3579C11.0239 35.2215 11.0246 35.0843 11.0162 34.9456L10.3213 27.5764C10.2465 26.3379 9.6828 25.1799 8.75415 24.357C7.8255 23.5341 6.608 23.1138 5.36948 23.1886C4.13096 23.2634 2.97288 23.8272 2.15001 24.7558C1.32713 25.6845 0.906865 26.902 0.98166 28.1405L1.67653 35.5096C1.73148 36.4165 2.04935 37.2877 2.5913 38.0168C3.13325 38.746 3.87583 39.3015 4.72832 39.6156C5.15242 39.8355 5.62825 39.9362 6.10508 39.907L12.2572 40.16V45.7578C12.2572 46.235 12.4468 46.6926 12.7843 47.0301C13.1217 47.3675 13.5794 47.5571 14.0566 47.5571C14.5338 47.5571 14.9914 47.3675 15.3289 47.0301C15.6663 46.6926 15.8559 46.235 15.8559 45.7578V37.6416C15.8559 37.2153 15.7035 36.8031 15.4263 36.4793C15.149 36.1554 14.7651 35.9414 14.3439 35.8757Z" fill="#314061"/>
<path d="M5.99918 21.6227C8.44922 21.6227 10.4354 19.6366 10.4354 17.1866C10.4354 14.7365 8.44922 12.7504 5.99918 12.7504C3.54914 12.7504 1.56299 14.7365 1.56299 17.1866C1.56299 19.6366 3.54914 21.6227 5.99918 21.6227Z" fill="#314061"/>
<path d="M42.6303 23.1887C41.3918 23.1139 40.1744 23.5342 39.2458 24.3571C38.3171 25.1799 37.7534 26.338 37.6786 27.5765L36.9838 34.9456C36.9754 35.0844 36.976 35.2215 36.9797 35.3579L33.8578 35.8443L33.6561 35.8758C33.2349 35.9414 32.851 36.1555 32.5737 36.4793C32.2964 36.8031 32.144 37.2154 32.144 37.6417V45.7578C32.144 46.235 32.3336 46.6927 32.6711 47.0301C33.0085 47.3675 33.4662 47.5571 33.9434 47.5571C34.4206 47.5571 34.8782 47.3675 35.2157 47.0301C35.5531 46.6927 35.7427 46.235 35.7427 45.7578V40.16L41.8949 39.907C42.3717 39.9362 42.8475 39.8355 43.2716 39.6156C44.1241 39.3015 44.8667 38.746 45.4086 38.0169C45.9506 37.2877 46.2685 36.4165 46.3234 35.5096L47.0183 28.1405C47.0553 27.5272 46.9712 26.9127 46.7707 26.3319C46.5702 25.7512 46.2573 25.2156 45.8499 24.7558C45.4424 24.296 44.9484 23.9209 44.396 23.652C43.8435 23.3831 43.2436 23.2257 42.6303 23.1887Z" fill="#314061"/>
<path d="M42.0011 21.6227C44.4512 21.6227 46.4373 19.6366 46.4373 17.1866C46.4373 14.7365 44.4512 12.7504 42.0011 12.7504C39.5511 12.7504 37.5649 14.7365 37.5649 17.1866C37.5649 19.6366 39.5511 21.6227 42.0011 21.6227Z" fill="#314061"/>
<path d="M34.0391 32.3062C34.0391 32.0698 33.9925 31.8357 33.9021 31.6173C33.8116 31.3989 33.679 31.2005 33.5118 31.0333C33.3447 30.8661 33.1462 30.7335 32.9278 30.6431C32.7094 30.5526 32.4753 30.506 32.2389 30.506H15.7614C15.2845 30.5067 14.8272 30.6967 14.4902 31.0342C14.1532 31.3717 13.9639 31.8292 13.9639 32.3062C13.9639 32.7832 14.1532 33.2407 14.4902 33.5782C14.8272 33.9157 15.2845 34.1057 15.7614 34.1064H17.7139V47.5571H30.2865V34.1064H32.2389C32.4753 34.1064 32.7094 34.0598 32.9278 33.9693C33.1462 33.8789 33.3447 33.7463 33.5118 33.5791C33.679 33.412 33.8116 33.2135 33.9021 32.9951C33.9925 32.7767 34.0391 32.5426 34.0391 32.3062Z" fill="#314061"/>
<path d="M22.9433 5.85717C21.4174 5.49996 19.8134 5.71599 18.4363 6.46417C17.0593 7.21236 16.0052 8.44052 15.4745 9.91512C15.3815 10.1752 13.2095 15.7405 12.4935 17.5745C12.4722 17.6292 12.4663 17.6888 12.4767 17.7466C12.487 17.8044 12.5131 17.8583 12.5521 17.9022C12.5911 17.9462 12.6414 17.9785 12.6976 17.9957C12.7538 18.0128 12.8136 18.0142 12.8705 17.9995L17.2736 16.8658C18.0024 17.5049 18.8672 17.9696 19.8025 18.2246C20.7377 18.4796 21.7187 18.5182 22.6711 18.3374C23.6235 18.1566 24.5221 17.7611 25.2988 17.1811C26.0755 16.6011 26.7099 15.8518 27.1537 14.99C27.5976 14.1282 27.8393 13.1766 27.8604 12.2075C27.8815 11.2383 27.6816 10.2771 27.2757 9.3968C26.8699 8.51648 26.2688 7.74019 25.5181 7.12687C24.7674 6.51356 23.8869 6.07934 22.9433 5.85717Z" fill="#314061"/>
<path d="M35.497 15.967L33.0569 10.8423C33.4858 9.99538 33.7422 9.07167 33.811 8.12483C33.8798 7.17799 33.7597 6.22692 33.4577 5.32691C33.1557 4.4269 32.6777 3.59591 32.0517 2.88224C31.4257 2.16858 30.664 1.58649 29.811 1.16981C28.958 0.753128 28.0307 0.510174 27.0829 0.45507C26.1352 0.399966 25.186 0.533813 24.2904 0.848828C23.3949 1.16384 22.5709 1.65374 21.8664 2.29004C21.1618 2.92634 20.5908 3.69635 20.1865 4.55529C20.7966 4.44957 21.4173 4.41884 22.0348 4.46379C22.8498 3.26291 24.0993 2.42547 25.5198 2.12807C26.9403 1.83068 28.4207 2.09659 29.649 2.86971C30.8772 3.64283 31.7571 4.86274 32.1033 6.27216C32.4494 7.68158 32.2346 9.17033 31.5042 10.4244L31.2958 10.7816L33.0392 14.4439C31.8977 14.236 30.3202 13.9503 28.9294 13.6982C28.8173 14.2143 28.6515 14.7172 28.4347 15.1988C29.8464 15.4539 33.658 16.1467 35.1522 16.4184C35.21 16.4289 35.2695 16.4232 35.3243 16.402C35.3791 16.3808 35.4269 16.3448 35.4626 16.2982C35.4983 16.2515 35.5203 16.1959 35.5264 16.1374C35.5325 16.079 35.5223 16.02 35.497 15.967Z" fill="#314061"/>
</svg>
