<svg width="100" height="100" viewBox="0 0 100 100" fill="none" xmlns="http://www.w3.org/2000/svg">
<path d="M49.9997 92.8571C73.6691 92.8571 92.8569 73.6693 92.8569 50C92.8569 26.3306 73.6691 7.14282 49.9997 7.14282C26.3304 7.14282 7.14258 26.3306 7.14258 50C7.14258 73.6693 26.3304 92.8571 49.9997 92.8571Z" fill="#4E6E91"/>
<path d="M49.9998 97.1429C24.0055 97.1429 2.85693 75.9943 2.85693 50C2.85693 24.0057 24.0055 2.85718 49.9998 2.85718C75.9941 2.85718 97.1426 24.0057 97.1426 50C97.1426 75.9943 75.9941 97.1429 49.9998 97.1429ZM49.9998 10C27.9441 10 9.99979 27.9443 9.99979 50C9.99979 72.0557 27.9441 90 49.9998 90C72.0555 90 89.9998 72.0557 89.9998 50C89.9998 27.9443 72.0555 10 49.9998 10Z" fill="#6693C1"/>
<path d="M77.7958 48.6271C77.7958 43.8829 75.9315 39.5786 72.9115 36.38C73.4772 33.2329 73.4129 28.8071 72.1429 25C65.7501 25 60.5515 29.9243 59.7115 30.7143H41.4201C40.5786 29.9257 35.6786 25 29.2858 25C28.1429 28.43 27.7329 32.4757 28.0772 35.4214C24.4801 38.6871 22.2086 43.3857 22.2086 48.6286C22.2086 58.4971 30.2072 66.4271 40.0758 66.4271H43.5715C40.7101 67.7371 38.3786 70.3643 37.8572 73.57C35.0001 73.57 30.9086 73.31 29.0272 70.4871C25.5129 65.2157 23.8986 65.2157 22.1429 65.2157C20.3858 65.2157 20.2429 66.9729 22.0001 68.73C23.7572 70.4871 23.7572 70.4871 25.5144 74.0014C26.9601 76.8971 30.7144 79.2857 37.8572 79.2857V88.7143C37.8572 88.7143 46.9229 90.7143 50.0001 90.7143C53.0772 90.7143 62.1429 88.7143 62.1429 88.7143V75.2214C62.1429 71.3386 59.7415 67.9471 56.4286 66.4286H59.9272C69.7972 66.4286 77.7958 58.4957 77.7958 48.6271Z" fill="#E0E4EB"/>
<path d="M50 100C22.43 100 0 77.57 0 50C0 22.43 22.43 0 50 0C77.57 0 100 22.43 100 50C100 77.57 77.57 100 50 100ZM50 2.85714C24.0057 2.85714 2.85714 24.0057 2.85714 50C2.85714 75.9943 24.0057 97.1429 50 97.1429C75.9943 97.1429 97.1429 75.9943 97.1429 50C97.1429 24.0057 75.9943 2.85714 50 2.85714Z" fill="#1F212B"/>
<path d="M49.9999 91.4284C27.157 91.4284 8.57129 72.8441 8.57129 49.9999C8.57129 27.1556 27.157 8.57129 49.9999 8.57129C72.8427 8.57129 91.4284 27.1556 91.4284 49.9999C91.4284 54.1784 90.807 58.3027 89.5841 62.2599C89.467 62.6356 89.0641 62.847 88.6913 62.7313C88.3141 62.6141 88.1027 62.2156 88.2199 61.8384C89.4013 58.017 89.9999 54.0356 89.9999 49.9999C89.9999 27.9441 72.0556 9.99986 49.9999 9.99986C27.9441 9.99986 9.99986 27.9441 9.99986 49.9999C9.99986 72.0556 27.9441 89.9999 49.9999 89.9999C58.3656 89.9999 66.377 87.4456 73.167 82.6127C73.4884 82.3841 73.9327 82.4599 74.1627 82.7799C74.3913 83.1013 74.3156 83.547 73.9956 83.7756C66.9613 88.7813 58.6641 91.4284 49.9999 91.4284Z" fill="#1F212B"/>
<path d="M76.6157 81.5256C76.4157 81.5256 76.2172 81.4413 76.0757 81.2785C75.8172 80.9799 75.85 80.5285 76.1486 80.2699C77.2043 79.3585 78.2229 78.3785 79.18 77.3599C79.4486 77.0713 79.9015 77.0599 80.1886 77.3271C80.4758 77.5971 80.4915 78.0485 80.2215 78.3371C79.2315 79.3928 78.1743 80.4071 77.0829 81.3513C76.9472 81.4685 76.7815 81.5256 76.6157 81.5256Z" fill="#1F212B"/>
<path d="M82.1344 75.7172C81.9816 75.7172 81.8258 75.6672 81.6944 75.5672C81.383 75.3243 81.3273 74.8758 81.5701 74.5643C83.9258 71.5386 85.8301 68.2043 87.2315 64.6529C87.3758 64.2843 87.7915 64.1072 88.1573 64.2501C88.5244 64.3958 88.7044 64.8101 88.5587 65.1758C87.1087 68.8543 85.1358 72.3086 82.6958 75.4415C82.5573 75.6229 82.3473 75.7172 82.1344 75.7172Z" fill="#1F212B"/>
<path d="M62.1428 89.4285C61.7485 89.4285 61.4285 89.1085 61.4285 88.7142V75.2214C61.4285 71.7485 59.3485 68.5528 56.1314 67.0771C55.8257 66.9371 55.6585 66.6028 55.7314 66.2756C55.8028 65.9485 56.0928 65.7142 56.4285 65.7142H59.9271C69.3857 65.7142 77.0814 58.0485 77.0814 48.6271C77.0814 44.2499 75.4157 40.0742 72.3928 36.8714C72.2371 36.7071 72.1685 36.4785 72.2085 36.2542C72.6842 33.6056 72.7657 29.5042 71.6242 25.7256C66.3642 25.9571 61.9171 29.6185 60.2142 31.2228C60.0814 31.3471 59.8928 31.4285 59.7114 31.4285H41.4185C41.2371 31.4285 41.0628 31.3599 40.9299 31.2356L40.7985 31.1114C36.4014 26.9299 32.4714 25.8456 29.8028 25.7256C28.8571 28.8142 28.4585 32.5285 28.7857 35.3385C28.8128 35.5671 28.7257 35.7942 28.5557 35.9499C24.9757 39.1999 22.9228 43.8214 22.9228 48.6285C22.9228 58.0499 30.6185 65.7142 40.0757 65.7142H43.5714C43.9071 65.7142 44.1971 65.9485 44.2685 66.2771C44.3414 66.6042 44.1742 66.9385 43.8685 67.0785C41.0485 68.3699 39.0157 70.9014 38.5614 73.6856C38.5057 74.0314 38.2071 74.2856 37.8571 74.2856C34.5242 74.2856 30.4414 73.8985 28.4314 70.8856C25.1299 65.9328 23.7457 65.9328 22.1414 65.9328C21.9414 65.9328 21.5914 65.9656 21.5014 66.1871C21.3785 66.4814 21.5457 67.2671 22.5042 68.2271C24.3428 70.0656 24.3771 70.1342 26.1528 73.6842C27.7271 76.8356 31.8842 78.5714 37.8571 78.5714C38.2514 78.5714 38.5714 78.8913 38.5714 79.2856V88.7142C38.5714 89.1085 38.2514 89.4285 37.8571 89.4285C37.4628 89.4285 37.1428 89.1085 37.1428 88.7142V79.9928C28.8614 79.8056 25.9057 76.3856 24.8742 74.3228C23.1685 70.9128 23.1685 70.9128 21.4942 69.2371C20.2528 67.9956 19.7614 66.6514 20.1814 65.6399C20.4799 64.9185 21.1942 64.5042 22.1414 64.5042C24.4099 64.5042 26.1557 64.8928 29.6199 70.0928C31.1471 72.3842 34.4185 72.8071 37.2714 72.8528C37.7885 70.6456 39.1414 68.6171 41.0285 67.1428H40.0742C29.8285 67.1428 21.4928 58.8385 21.4928 48.6299C21.4928 43.5414 23.6142 38.6471 27.3271 35.1414C27.0285 31.9942 27.5099 28.0614 28.6071 24.7742C28.7057 24.4828 28.9785 24.2856 29.2857 24.2856C32.1942 24.2856 36.7028 25.2799 41.7028 29.9999H59.4299C61.4685 28.1271 66.3542 24.2856 72.1414 24.2856C72.4485 24.2856 72.7214 24.4828 72.8199 24.7742C74.1557 28.7771 74.1457 33.2042 73.6742 36.1528C76.7957 39.5871 78.5099 44.0028 78.5099 48.6271C78.5099 58.8371 70.1742 67.1428 59.9271 67.1428H58.9371C61.3757 69.0971 62.8571 72.0599 62.8571 75.2214V88.7142C62.8571 89.1085 62.5371 89.4285 62.1428 89.4285Z" fill="#1F212B"/>
<path d="M27.4826 44.243C27.3926 44.243 27.3012 44.2258 27.2141 44.1901C26.8484 44.0415 26.6726 43.6244 26.8226 43.2601C27.5026 41.593 28.4898 40.0801 29.7612 38.763C30.0355 38.4801 30.4884 38.4715 30.7712 38.7444C31.0555 39.0187 31.0641 39.4701 30.7912 39.7544C29.6455 40.9415 28.7555 42.3015 28.1455 43.7987C28.0312 44.0758 27.7655 44.243 27.4826 44.243Z" fill="#1F212B"/>
<path d="M26.6569 51.4585C26.3126 51.4585 26.0084 51.207 25.9526 50.8556C25.8384 50.127 25.7798 49.3785 25.7798 48.6299C25.7798 47.8685 25.8398 47.1056 25.9569 46.3585C26.0198 45.9685 26.3926 45.7028 26.7741 45.7642C27.1626 45.8256 27.4298 46.1913 27.3684 46.5813C27.2626 47.2542 27.2084 47.9428 27.2084 48.6299C27.2084 49.3042 27.2612 49.977 27.3641 50.6328C27.4255 51.0228 27.1584 51.3885 26.7698 51.4499C26.7326 51.4556 26.6955 51.4585 26.6569 51.4585Z" fill="#1F212B"/>
<path d="M37.7955 62.7342C37.7555 62.7342 37.7141 62.7313 37.6741 62.7242C32.7569 61.8885 28.5712 58.4742 26.7512 53.8128C26.6069 53.4456 26.7884 53.0314 27.1569 52.8885C27.5226 52.7442 27.9384 52.9271 28.0812 53.2942C29.7184 57.4913 33.4855 60.5642 37.9126 61.3156C38.2998 61.3813 38.5626 61.7513 38.4969 62.1399C38.4384 62.4871 38.1369 62.7342 37.7955 62.7342Z" fill="#1F212B"/>
</svg>
