<svg width="100" height="100" viewBox="0 0 100 100" fill="none" xmlns="http://www.w3.org/2000/svg">
<path d="M80.0001 98.4616H20.0001C9.84627 98.4616 1.53857 90.1539 1.53857 80.0001V20.0001C1.53857 9.84627 9.84627 1.53857 20.0001 1.53857H80.0001C90.154 1.53857 98.4617 9.84627 98.4617 20.0001V80.0001C98.4617 90.1539 90.154 98.4616 80.0001 98.4616Z" fill="#78A1D1"/>
<path d="M80 100H20C8.97231 100 0 91.0277 0 80V20C0 8.97231 8.97231 0 20 0H80C91.0277 0 100 8.97231 100 20V80C100 91.0277 91.0292 100 80 100ZM20 3.07692C10.6692 3.07692 3.07692 10.6692 3.07692 20V80C3.07692 89.3308 10.6692 96.9231 20 96.9231H80C89.3308 96.9231 96.9231 89.3308 96.9231 80V20C96.9231 10.6692 89.3308 3.07692 80 3.07692H20V3.07692Z" fill="#1F212B"/>
<path d="M91.5383 46.923V75.6353C91.5383 84.3814 84.3814 91.5384 75.6353 91.5384H24.3645C15.6184 91.5384 8.46143 84.3814 8.46143 75.6353V24.3645C8.46143 15.6184 15.6184 8.46143 24.3645 8.46143H76.1537" fill="#78A1D1"/>
<path d="M75.6355 92.3078H24.3647C15.1708 92.3078 7.69238 84.8294 7.69238 75.6355V24.3632C7.69238 15.1694 15.1708 7.69092 24.3647 7.69092H76.1539C76.5786 7.69092 76.9232 8.03553 76.9232 8.46015C76.9232 8.88476 76.5786 9.22938 76.1539 9.22938H24.3647C16.0201 9.22938 9.23084 16.0186 9.23084 24.3632V75.634C9.23084 83.9786 16.0201 90.7678 24.3647 90.7678H75.6355C83.9801 90.7678 90.7693 83.9786 90.7693 75.634V46.9232C90.7693 46.4986 91.1139 46.154 91.5386 46.154C91.9632 46.154 92.3078 46.4986 92.3078 46.9232V75.6355C92.3078 84.8278 84.8293 92.3078 75.6355 92.3078Z" fill="#1F212B"/>
<path d="M91.5388 44.6154C91.1142 44.6154 90.7695 44.2708 90.7695 43.8462V37.6924C90.7695 37.2677 91.1142 36.9231 91.5388 36.9231C91.9634 36.9231 92.308 37.2677 92.308 37.6924V43.8462C92.308 44.2708 91.9634 44.6154 91.5388 44.6154ZM91.5388 35.3847C91.1142 35.3847 90.7695 35.0401 90.7695 34.6154V31.5385C90.7695 31.1139 91.1142 30.7693 91.5388 30.7693C91.9634 30.7693 92.308 31.1139 92.308 31.5385V34.6154C92.308 35.0401 91.9634 35.3847 91.5388 35.3847Z" fill="#1F212B"/>
<path d="M73.0771 55.877V71.537H63.8463L63.7186 56.0108C63.7186 52.0785 61.9294 49.2847 58.4017 49.2847C55.7078 49.2847 54.1124 51.0877 53.4048 52.837C53.1509 53.4585 53.0771 54.3339 53.0771 55.2093V71.537H43.7278C43.7278 71.537 43.854 45.0462 43.7278 42.3062H53.0771V46.8185C53.0555 46.8523 53.0355 46.8877 53.014 46.9216H53.0771V46.8185C54.3771 44.6493 56.7494 42.1216 61.9263 42.1216C68.3386 42.1108 73.0771 46.1077 73.0771 55.877ZM33.1048 28.5247C30.2171 28.5247 28.334 30.5047 28.334 33.1077C28.334 35.6523 30.1617 37.6908 32.9955 37.6908H33.0509C35.994 37.6908 37.8217 35.6523 37.8217 33.1077C37.7571 30.5062 35.9832 28.5247 33.1048 28.5247ZM28.4617 71.5385H37.6924V42.3077H28.4617V71.5385Z" fill="#E0E4EB"/>
<path d="M73.0768 72.3076H63.846C63.4245 72.3076 63.0798 71.9676 63.0768 71.5445L62.9491 56.0184C62.9491 54.2215 62.506 50.0553 58.4014 50.0553C55.6568 50.0553 54.4922 52.203 54.1183 53.1276C53.9383 53.5692 53.8475 54.2707 53.8475 55.2107V71.5384C53.8475 71.963 53.5029 72.3076 53.0783 72.3076H43.7275C43.5229 72.3076 43.326 72.2261 43.1829 72.0815C43.0398 71.9369 42.9583 71.7399 42.9583 71.5353C42.9598 71.2707 43.0829 45.0338 42.9583 42.343C42.9491 42.1338 43.0245 41.9276 43.1706 41.7768C43.3168 41.6245 43.5168 41.5384 43.7275 41.5384H53.0768C53.5014 41.5384 53.846 41.883 53.846 42.3076V44.5076C55.8275 42.383 58.5706 41.3722 61.9552 41.3538C65.3214 41.3538 68.0599 42.3815 70.0906 44.4092C72.5829 46.8968 73.846 50.7553 73.846 55.8799V71.5399C73.846 71.963 73.5014 72.3076 73.0768 72.3076ZM64.6091 70.7692H72.3075V55.8784C72.3075 51.1784 71.1952 47.6861 69.0029 45.4968C67.2722 43.7676 64.8999 42.8922 61.9537 42.8922C61.9445 42.8922 61.9368 42.8922 61.9275 42.8922C56.9814 42.8922 54.9106 45.2876 53.786 47.1322C53.6706 47.4384 53.3968 47.6922 53.0768 47.6922C52.7983 47.6922 52.5106 47.5415 52.3737 47.2999C52.2552 47.0891 52.2198 46.8384 52.3075 46.6215V43.0768H44.5168C44.5983 47.7338 44.5183 66.6199 44.4998 70.7692H52.3075V55.2092C52.3075 54.0507 52.4337 53.1799 52.6922 52.5461C53.7122 50.023 55.8475 48.5153 58.3998 48.5153C62.1537 48.5153 64.486 51.3876 64.486 56.0122L64.6091 70.7692ZM37.6921 72.3076H28.4614C28.0368 72.3076 27.6921 71.963 27.6921 71.5384V42.3076C27.6921 41.883 28.0368 41.5384 28.4614 41.5384H37.6921C38.1168 41.5384 38.4614 41.883 38.4614 42.3076V71.5384C38.4614 71.963 38.1168 72.3076 37.6921 72.3076ZM29.2306 70.7692H36.9229V43.0768H29.2306V70.7692ZM33.0491 38.4615C29.8475 38.4615 27.5645 36.2107 27.5645 33.1091C27.5645 30.0076 29.8952 27.7568 33.106 27.7568C36.2568 27.7568 38.5137 29.9507 38.5906 33.0907C38.5906 36.2107 36.2598 38.4615 33.0491 38.4615ZM33.1045 29.2938C30.7475 29.2938 29.1014 30.863 29.1014 33.1076C29.1014 35.3522 30.7029 36.9215 32.9937 36.9215C35.4045 36.9215 37.0506 35.3522 37.0506 33.1076C36.9937 30.7984 35.4445 29.2938 33.1045 29.2938Z" fill="#1F212B"/>
</svg>
