<svg width="20" height="40" viewBox="0 0 20 40" fill="none" xmlns="http://www.w3.org/2000/svg">
<path d="M17.6697 39.5H2.4688C1.33432 39.5 0.414062 38.4746 0.414062 37.2104V2.78957C0.414062 1.52543 1.33432 0.5 2.4688 0.5H17.6691C18.8042 0.5 19.7244 1.52543 19.7244 2.78957V37.2098C19.7244 38.4746 18.8042 39.5 17.6697 39.5Z" fill="#E0E4EB"/>
<path d="M19.7244 4.53442H0.414062V31.431H19.7244V4.53442Z" fill="#1F212B"/>
<path d="M10.0691 37.4827C11.069 37.4827 11.8795 36.5796 11.8795 35.4655C11.8795 34.3514 11.069 33.4482 10.0691 33.4482C9.06931 33.4482 8.25879 34.3514 8.25879 35.4655C8.25879 36.5796 9.06931 37.4827 10.0691 37.4827Z" fill="#1F212B"/>
<path d="M10.069 3.18955H7.65521C7.3215 3.18955 7.05176 2.88899 7.05176 2.51714C7.05176 2.1453 7.3215 1.84473 7.65521 1.84473H10.069C10.4027 1.84473 10.6724 2.1453 10.6724 2.51714C10.6724 2.88899 10.4027 3.18955 10.069 3.18955Z" fill="#1F212B"/>
<path d="M12.4833 3.18955H11.8798C11.5461 3.18955 11.2764 2.88899 11.2764 2.51714C11.2764 2.1453 11.5461 1.84473 11.8798 1.84473H12.4833C12.817 1.84473 13.0867 2.1453 13.0867 2.51714C13.0867 2.88899 12.817 3.18955 12.4833 3.18955Z" fill="#1F212B"/>
<path d="M11.2531 11.9437H8.88517C8.53939 11.9437 8.25879 11.631 8.25879 11.2457V8.60715C8.25879 8.22185 8.53939 7.90918 8.88517 7.90918H11.2531C11.5989 7.90918 11.8795 8.22185 11.8795 8.60715V11.2457C11.8795 11.631 11.5989 11.9437 11.2531 11.9437Z" fill="#3083C9"/>
<path d="M5.82243 11.9437H3.4545C3.10873 11.9437 2.82812 11.631 2.82812 11.2457V8.60715C2.82812 8.22185 3.10873 7.90918 3.4545 7.90918H5.82243C6.16821 7.90918 6.44881 8.22185 6.44881 8.60715V11.2457C6.44881 11.631 6.16821 11.9437 5.82243 11.9437Z" fill="#88C057"/>
<path d="M16.6843 11.9437H14.3163C13.9705 11.9437 13.6899 11.631 13.6899 11.2457V8.60715C13.6899 8.22185 13.9705 7.90918 14.3163 7.90918H16.6843C17.03 7.90918 17.3106 8.22185 17.3106 8.60715V11.2457C17.3106 11.631 17.03 11.9437 16.6843 11.9437Z" fill="#DC691D"/>
<path d="M11.2531 17.9827H8.88517C8.53939 17.9827 8.25879 17.6701 8.25879 17.2848V14.6462C8.25879 14.2609 8.53939 13.9482 8.88517 13.9482H11.2531C11.5989 13.9482 11.8795 14.2609 11.8795 14.6462V17.2848C11.8795 17.6701 11.5989 17.9827 11.2531 17.9827Z" fill="#EBBA16"/>
<path d="M5.82243 17.9827H3.4545C3.10873 17.9827 2.82812 17.6701 2.82812 17.2848V14.6462C2.82812 14.2609 3.10873 13.9482 3.4545 13.9482H5.82243C6.16821 13.9482 6.44881 14.2609 6.44881 14.6462V17.2848C6.44881 17.6701 6.16821 17.9827 5.82243 17.9827Z" fill="#7383BF"/>
<path d="M16.6843 17.9827H14.3163C13.9705 17.9827 13.6899 17.6701 13.6899 17.2848V14.6462C13.6899 14.2609 13.9705 13.9482 14.3163 13.9482H16.6843C17.03 13.9482 17.3106 14.2609 17.3106 14.6462V17.2848C17.3106 17.6701 17.03 17.9827 16.6843 17.9827Z" fill="#DD352E"/>
<path d="M11.2531 24.0345H8.88517C8.53939 24.0345 8.25879 23.7218 8.25879 23.3365V20.698C8.25879 20.3127 8.53939 20 8.88517 20H11.2531C11.5989 20 11.8795 20.3127 11.8795 20.698V23.3365C11.8795 23.7218 11.5989 24.0345 11.2531 24.0345Z" fill="#A485BE"/>
<path d="M5.82243 24.0345H3.4545C3.10873 24.0345 2.82812 23.7218 2.82812 23.3365V20.698C2.82812 20.3127 3.10873 20 3.4545 20H5.82243C6.16821 20 6.44881 20.3127 6.44881 20.698V23.3365C6.44881 23.7218 6.16821 24.0345 5.82243 24.0345Z" fill="#EA6248"/>
<path d="M16.6843 24.0345H14.3163C13.9705 24.0345 13.6899 23.7218 13.6899 23.3365V20.698C13.6899 20.3127 13.9705 20 14.3163 20H16.6843C17.03 20 17.3106 20.3127 17.3106 20.698V23.3365C17.3106 23.7218 17.03 24.0345 16.6843 24.0345Z" fill="#25AE88"/>
</svg>
