<svg width="48" height="48" viewBox="0 0 48 48" fill="none" xmlns="http://www.w3.org/2000/svg">
<path d="M41.293 23.9758C41.1949 23.5404 40.9633 23.1287 40.617 22.774C40.2706 22.4193 39.8194 22.1317 39.2997 21.9343C35.8336 20.62 28.2278 18.6788 28.2278 18.6788V16.769L28.4395 16.6475C29.916 15.7884 30.9034 14.5316 31.1985 13.1357L31.2411 12.9322H31.4475C32.005 12.932 32.5499 12.8055 33.0126 12.5689C33.4753 12.3323 33.8348 11.9963 34.0453 11.6036C34.2961 11.259 34.4276 10.8715 34.4275 10.4776C34.4275 10.2064 34.3597 9.93769 34.2277 9.68575C34.1616 9.41022 33.9603 9.16409 33.6645 8.99717L32.9628 8.67315L33.1372 8.09393C34.4049 3.89158 30.1239 0.106414 24.3756 0.00211932C24.2358 7.6593e-05 24.0973 -0.000909046 23.9601 0.00109918C23.823 -0.000909046 23.6845 7.65831e-05 23.5447 0.00211192C17.7964 0.106414 13.5154 3.89158 14.783 8.09393L14.9575 8.67314L14.2557 8.99717C13.96 9.16409 13.7586 9.41022 13.6925 9.68576C13.5605 9.93769 13.4927 10.2064 13.4928 10.4776C13.4926 10.8715 13.6241 11.259 13.8749 11.6036C14.0855 11.9963 14.445 12.3323 14.9077 12.5689C15.3704 12.8055 15.9152 12.932 16.4728 12.9322H16.6792L16.7218 13.1357C17.0169 14.5316 18.0042 15.7884 19.4808 16.6475L19.6925 16.769V18.6788C19.6925 18.6788 12.0867 20.62 8.62062 21.9343C8.10091 22.1317 7.64962 22.4193 7.30331 22.774C6.957 23.1286 6.72541 23.5403 6.62728 23.9757C6.03341 26.6116 5.92822 31.058 5.92822 31.058H41.992C41.992 31.058 41.8869 26.6116 41.293 23.9758Z" fill="#2D3E50"/>
<path d="M44.9765 25.6285H3.02347C2.25767 25.6201 1.51765 25.8928 0.955756 26.3904C0.393864 26.888 0.052876 27.5727 0.00299406 28.3035C-0.0149032 28.682 0.0475768 29.06 0.186663 29.4147C0.32575 29.7695 0.53856 30.0936 0.81225 30.3676C1.08594 30.6415 1.41484 30.8596 1.77909 31.0087C2.14334 31.1577 2.5354 31.2347 2.9316 31.2348H6.1021L6.11147 31.2438L6.12084 46.9028C6.12084 47.0469 6.15052 47.1896 6.20818 47.3227C6.26585 47.4558 6.35037 47.5768 6.45692 47.6787C6.56346 47.7806 6.68996 47.8614 6.82917 47.9165C6.96838 47.9717 7.11759 48 7.26827 48H40.7317C41.0387 47.9998 41.3331 47.8829 41.55 47.6751C41.767 47.4673 41.8887 47.1857 41.8885 46.892V31.2438C41.8888 31.2412 41.8901 31.2388 41.8922 31.2371C41.8943 31.2355 41.897 31.2346 41.8997 31.2348H45.0683C45.4646 31.2348 45.8567 31.158 46.2211 31.009C46.5854 30.86 46.9143 30.6419 47.1881 30.3679C47.4618 30.0939 47.6746 29.7697 47.8136 29.4149C47.9526 29.0601 48.015 28.682 47.997 28.3035C47.9474 27.5726 47.6065 26.8877 47.0445 26.3901C46.4826 25.8924 45.7424 25.6198 44.9765 25.6285Z" fill="#195E93"/>
</svg>
