<svg width="36" height="35" viewBox="0 0 36 35" fill="none" xmlns="http://www.w3.org/2000/svg">
<g clip-path="url(#clip0)">
<path d="M32.4244 11.2712H2.2983C1.1166 11.2712 0.157959 10.3125 0.157959 9.13085V2.14034C0.157959 0.958644 1.1166 0 2.2983 0H32.4238C33.6061 0 34.5647 0.958644 34.5647 2.14034V9.13025C34.5647 10.3125 33.6061 11.2712 32.4244 11.2712Z" fill="#E0E4EB"/>
<path d="M32.4244 22.5424H2.2983C1.1166 22.5424 0.157959 21.5838 0.157959 20.4021V13.4116C0.157959 12.2299 1.1166 11.2712 2.2983 11.2712H32.4238C33.6061 11.2712 34.5647 12.2299 34.5647 13.4116V20.4015C34.5647 21.5838 33.6061 22.5424 32.4244 22.5424Z" fill="#38454F"/>
<path d="M32.4244 33.8137H2.2983C1.1166 33.8137 0.157959 32.855 0.157959 31.6733V24.6828C0.157959 23.5011 1.1166 22.5425 2.2983 22.5425H32.4238C33.6061 22.5425 34.5647 23.5011 34.5647 24.6828V31.6727C34.5647 32.855 33.6061 33.8137 32.4244 33.8137Z" fill="#E0E4EB"/>
<path d="M5.79356 7.71187C6.94025 7.71187 7.86983 6.78229 7.86983 5.6356C7.86983 4.4889 6.94025 3.55933 5.79356 3.55933C4.64686 3.55933 3.71729 4.4889 3.71729 5.6356C3.71729 6.78229 4.64686 7.71187 5.79356 7.71187Z" fill="white"/>
<path d="M29.2258 5.33903C29.5534 5.33903 29.819 5.07343 29.819 4.74581C29.819 4.41818 29.5534 4.15259 29.2258 4.15259C28.8982 4.15259 28.6326 4.41818 28.6326 4.74581C28.6326 5.07343 28.8982 5.33903 29.2258 5.33903Z" fill="white"/>
<path d="M26.853 5.33903C27.1806 5.33903 27.4462 5.07343 27.4462 4.74581C27.4462 4.41818 27.1806 4.15259 26.853 4.15259C26.5254 4.15259 26.2598 4.41818 26.2598 4.74581C26.2598 5.07343 26.5254 5.33903 26.853 5.33903Z" fill="white"/>
<path d="M30.4123 7.11857C30.7399 7.11857 31.0055 6.85298 31.0055 6.52535C31.0055 6.19772 30.7399 5.93213 30.4123 5.93213C30.0847 5.93213 29.8191 6.19772 29.8191 6.52535C29.8191 6.85298 30.0847 7.11857 30.4123 7.11857Z" fill="white"/>
<path d="M28.0393 7.11857C28.3669 7.11857 28.6325 6.85298 28.6325 6.52535C28.6325 6.19772 28.3669 5.93213 28.0393 5.93213C27.7116 5.93213 27.446 6.19772 27.446 6.52535C27.446 6.85298 27.7116 7.11857 28.0393 7.11857Z" fill="white"/>
<path d="M24.4799 5.33903C24.8076 5.33903 25.0732 5.07343 25.0732 4.74581C25.0732 4.41818 24.8076 4.15259 24.4799 4.15259C24.1523 4.15259 23.8867 4.41818 23.8867 4.74581C23.8867 5.07343 24.1523 5.33903 24.4799 5.33903Z" fill="white"/>
<path d="M25.6665 7.11857C25.9941 7.11857 26.2597 6.85298 26.2597 6.52535C26.2597 6.19772 25.9941 5.93213 25.6665 5.93213C25.3388 5.93213 25.0732 6.19772 25.0732 6.52535C25.0732 6.85298 25.3388 7.11857 25.6665 7.11857Z" fill="white"/>
<path d="M22.1071 5.33903C22.4348 5.33903 22.7004 5.07343 22.7004 4.74581C22.7004 4.41818 22.4348 4.15259 22.1071 4.15259C21.7795 4.15259 21.5139 4.41818 21.5139 4.74581C21.5139 5.07343 21.7795 5.33903 22.1071 5.33903Z" fill="white"/>
<path d="M23.2937 7.11857C23.6213 7.11857 23.8869 6.85298 23.8869 6.52535C23.8869 6.19772 23.6213 5.93213 23.2937 5.93213C22.966 5.93213 22.7004 6.19772 22.7004 6.52535C22.7004 6.85298 22.966 7.11857 23.2937 7.11857Z" fill="white"/>
<path d="M19.7343 5.33903C20.062 5.33903 20.3276 5.07343 20.3276 4.74581C20.3276 4.41818 20.062 4.15259 19.7343 4.15259C19.4067 4.15259 19.1411 4.41818 19.1411 4.74581C19.1411 5.07343 19.4067 5.33903 19.7343 5.33903Z" fill="white"/>
<path d="M20.9206 7.11857C21.2482 7.11857 21.5138 6.85298 21.5138 6.52535C21.5138 6.19772 21.2482 5.93213 20.9206 5.93213C20.593 5.93213 20.3274 6.19772 20.3274 6.52535C20.3274 6.85298 20.593 7.11857 20.9206 7.11857Z" fill="white"/>
<path d="M5.79356 18.9831C6.94025 18.9831 7.86983 18.0535 7.86983 16.9068C7.86983 15.7601 6.94025 14.8306 5.79356 14.8306C4.64686 14.8306 3.71729 15.7601 3.71729 16.9068C3.71729 18.0535 4.64686 18.9831 5.79356 18.9831Z" fill="white"/>
<path d="M29.2258 16.6103C29.5534 16.6103 29.819 16.3447 29.819 16.017C29.819 15.6894 29.5534 15.4238 29.2258 15.4238C28.8982 15.4238 28.6326 15.6894 28.6326 16.017C28.6326 16.3447 28.8982 16.6103 29.2258 16.6103Z" fill="white"/>
<path d="M26.853 16.6103C27.1806 16.6103 27.4462 16.3447 27.4462 16.017C27.4462 15.6894 27.1806 15.4238 26.853 15.4238C26.5254 15.4238 26.2598 15.6894 26.2598 16.017C26.2598 16.3447 26.5254 16.6103 26.853 16.6103Z" fill="white"/>
<path d="M30.4123 18.3898C30.7399 18.3898 31.0055 18.1242 31.0055 17.7966C31.0055 17.469 30.7399 17.2034 30.4123 17.2034C30.0847 17.2034 29.8191 17.469 29.8191 17.7966C29.8191 18.1242 30.0847 18.3898 30.4123 18.3898Z" fill="white"/>
<path d="M28.0393 18.3898C28.3669 18.3898 28.6325 18.1242 28.6325 17.7966C28.6325 17.469 28.3669 17.2034 28.0393 17.2034C27.7116 17.2034 27.446 17.469 27.446 17.7966C27.446 18.1242 27.7116 18.3898 28.0393 18.3898Z" fill="white"/>
<path d="M24.4799 16.6103C24.8076 16.6103 25.0732 16.3447 25.0732 16.017C25.0732 15.6894 24.8076 15.4238 24.4799 15.4238C24.1523 15.4238 23.8867 15.6894 23.8867 16.017C23.8867 16.3447 24.1523 16.6103 24.4799 16.6103Z" fill="white"/>
<path d="M25.6665 18.3898C25.9941 18.3898 26.2597 18.1242 26.2597 17.7966C26.2597 17.469 25.9941 17.2034 25.6665 17.2034C25.3388 17.2034 25.0732 17.469 25.0732 17.7966C25.0732 18.1242 25.3388 18.3898 25.6665 18.3898Z" fill="white"/>
<path d="M22.1071 16.6103C22.4348 16.6103 22.7004 16.3447 22.7004 16.017C22.7004 15.6894 22.4348 15.4238 22.1071 15.4238C21.7795 15.4238 21.5139 15.6894 21.5139 16.017C21.5139 16.3447 21.7795 16.6103 22.1071 16.6103Z" fill="white"/>
<path d="M23.2937 18.3898C23.6213 18.3898 23.8869 18.1242 23.8869 17.7966C23.8869 17.469 23.6213 17.2034 23.2937 17.2034C22.966 17.2034 22.7004 17.469 22.7004 17.7966C22.7004 18.1242 22.966 18.3898 23.2937 18.3898Z" fill="white"/>
<path d="M19.7343 16.6103C20.062 16.6103 20.3276 16.3447 20.3276 16.017C20.3276 15.6894 20.062 15.4238 19.7343 15.4238C19.4067 15.4238 19.1411 15.6894 19.1411 16.017C19.1411 16.3447 19.4067 16.6103 19.7343 16.6103Z" fill="white"/>
<path d="M20.9206 18.3898C21.2482 18.3898 21.5138 18.1242 21.5138 17.7966C21.5138 17.469 21.2482 17.2034 20.9206 17.2034C20.593 17.2034 20.3274 17.469 20.3274 17.7966C20.3274 18.1242 20.593 18.3898 20.9206 18.3898Z" fill="white"/>
<path d="M5.79356 30.2543C6.94025 30.2543 7.86983 29.3248 7.86983 28.1781C7.86983 27.0314 6.94025 26.1018 5.79356 26.1018C4.64686 26.1018 3.71729 27.0314 3.71729 28.1781C3.71729 29.3248 4.64686 30.2543 5.79356 30.2543Z" fill="white"/>
<path d="M29.2258 27.8813C29.5534 27.8813 29.819 27.6157 29.819 27.288C29.819 26.9604 29.5534 26.6948 29.2258 26.6948C28.8982 26.6948 28.6326 26.9604 28.6326 27.288C28.6326 27.6157 28.8982 27.8813 29.2258 27.8813Z" fill="white"/>
<path d="M26.853 27.8813C27.1806 27.8813 27.4462 27.6157 27.4462 27.288C27.4462 26.9604 27.1806 26.6948 26.853 26.6948C26.5254 26.6948 26.2598 26.9604 26.2598 27.288C26.2598 27.6157 26.5254 27.8813 26.853 27.8813Z" fill="white"/>
<path d="M30.4123 29.6611C30.7399 29.6611 31.0055 29.3955 31.0055 29.0678C31.0055 28.7402 30.7399 28.4746 30.4123 28.4746C30.0847 28.4746 29.8191 28.7402 29.8191 29.0678C29.8191 29.3955 30.0847 29.6611 30.4123 29.6611Z" fill="white"/>
<path d="M28.0393 29.6611C28.3669 29.6611 28.6325 29.3955 28.6325 29.0678C28.6325 28.7402 28.3669 28.4746 28.0393 28.4746C27.7116 28.4746 27.446 28.7402 27.446 29.0678C27.446 29.3955 27.7116 29.6611 28.0393 29.6611Z" fill="white"/>
<path d="M24.4799 27.8813C24.8076 27.8813 25.0732 27.6157 25.0732 27.288C25.0732 26.9604 24.8076 26.6948 24.4799 26.6948C24.1523 26.6948 23.8867 26.9604 23.8867 27.288C23.8867 27.6157 24.1523 27.8813 24.4799 27.8813Z" fill="white"/>
<path d="M25.6665 29.6611C25.9941 29.6611 26.2597 29.3955 26.2597 29.0678C26.2597 28.7402 25.9941 28.4746 25.6665 28.4746C25.3388 28.4746 25.0732 28.7402 25.0732 29.0678C25.0732 29.3955 25.3388 29.6611 25.6665 29.6611Z" fill="white"/>
<path d="M22.1071 27.8813C22.4348 27.8813 22.7004 27.6157 22.7004 27.288C22.7004 26.9604 22.4348 26.6948 22.1071 26.6948C21.7795 26.6948 21.5139 26.9604 21.5139 27.288C21.5139 27.6157 21.7795 27.8813 22.1071 27.8813Z" fill="white"/>
<path d="M23.2937 29.6611C23.6213 29.6611 23.8869 29.3955 23.8869 29.0678C23.8869 28.7402 23.6213 28.4746 23.2937 28.4746C22.966 28.4746 22.7004 28.7402 22.7004 29.0678C22.7004 29.3955 22.966 29.6611 23.2937 29.6611Z" fill="white"/>
<path d="M19.7343 27.8813C20.062 27.8813 20.3276 27.6157 20.3276 27.288C20.3276 26.9604 20.062 26.6948 19.7343 26.6948C19.4067 26.6948 19.1411 26.9604 19.1411 27.288C19.1411 27.6157 19.4067 27.8813 19.7343 27.8813Z" fill="white"/>
<path d="M20.9206 29.6611C21.2482 29.6611 21.5138 29.3955 21.5138 29.0678C21.5138 28.7402 21.2482 28.4746 20.9206 28.4746C20.593 28.4746 20.3274 28.7402 20.3274 29.0678C20.3274 29.3955 20.593 29.6611 20.9206 29.6611Z" fill="white"/>
<path d="M28.0393 35C31.9708 35 35.1579 31.8129 35.1579 27.8813C35.1579 23.9498 31.9708 20.7627 28.0393 20.7627C24.1078 20.7627 20.9207 23.9498 20.9207 27.8813C20.9207 31.8129 24.1078 35 28.0393 35Z" fill="#26B999"/>
<path d="M31.9374 24.4283C31.6675 24.2408 31.2985 24.3073 31.1116 24.5766L27.792 29.3461L25.4493 27.4229C25.1966 27.2147 24.8223 27.252 24.6147 27.5053C24.4065 27.7586 24.4432 28.1324 24.6971 28.34L27.5363 30.6708C27.6431 30.758 27.776 30.8054 27.9124 30.8054C27.9391 30.8054 27.9664 30.8036 27.9937 30.8001C28.1574 30.7769 28.3045 30.6874 28.3994 30.5515L32.0857 25.2547C32.2726 24.9853 32.2061 24.6158 31.9374 24.4283Z" fill="white"/>
</g>
<defs>
<clipPath id="clip0">
<rect width="35" height="35" fill="white" transform="translate(0.157959)"/>
</clipPath>
</defs>
</svg>
