<svg width="100" height="100" viewBox="0 0 100 100" fill="none" xmlns="http://www.w3.org/2000/svg">
<path d="M79.9996 98.4617H19.9996C9.84578 98.4617 1.53809 90.154 1.53809 80.0001V20.0001C1.53809 9.84627 9.84578 1.53857 19.9996 1.53857H79.9996C90.1535 1.53857 98.4611 9.84627 98.4611 20.0001V80.0001C98.4611 90.154 90.1535 98.4617 79.9996 98.4617Z" fill="#E0E4EB"/>
<path d="M80 100H20C8.97231 100 0 91.0277 0 80V20C0 8.97231 8.97231 0 20 0H80C91.0277 0 100 8.97231 100 20V80C100 91.0277 91.0292 100 80 100ZM20 3.07692C10.6692 3.07692 3.07692 10.6692 3.07692 20V80C3.07692 89.3308 10.6692 96.9231 20 96.9231H80C89.3308 96.9231 96.9231 89.3308 96.9231 80V20C96.9231 10.6692 89.3308 3.07692 80 3.07692H20Z" fill="#1F212B"/>
<path d="M91.5383 46.923V75.6353C91.5383 84.3814 84.3814 91.5384 75.6353 91.5384H24.3645C15.6183 91.5384 8.46143 84.3814 8.46143 75.6353V24.3645C8.46143 15.6184 15.6183 8.46143 24.3645 8.46143H76.1537" fill="#E0E4EB"/>
<path d="M75.6355 92.3078H24.3647C15.1708 92.3078 7.69238 84.8294 7.69238 75.6355V24.3632C7.69238 15.1694 15.1708 7.69092 24.3647 7.69092H76.1539C76.5785 7.69092 76.9232 8.03553 76.9232 8.46015C76.9232 8.88476 76.5785 9.22938 76.1539 9.22938H24.3647C16.0201 9.22938 9.23084 16.0186 9.23084 24.3632V75.634C9.23084 83.9786 16.0201 90.7678 24.3647 90.7678H75.6355C83.9801 90.7678 90.7693 83.9786 90.7693 75.634V46.9232C90.7693 46.4986 91.1139 46.154 91.5385 46.154C91.9632 46.154 92.3078 46.4986 92.3078 46.9232V75.6355C92.3078 84.8278 84.8293 92.3078 75.6355 92.3078Z" fill="#1F212B"/>
<path d="M91.5383 44.6154C91.1137 44.6154 90.769 44.2708 90.769 43.8462V37.6924C90.769 37.2677 91.1137 36.9231 91.5383 36.9231C91.9629 36.9231 92.3075 37.2677 92.3075 37.6924V43.8462C92.3075 44.2708 91.9644 44.6154 91.5383 44.6154ZM91.5383 35.3847C91.1137 35.3847 90.769 35.0401 90.769 34.6154V31.5385C90.769 31.1139 91.1137 30.7693 91.5383 30.7693C91.9629 30.7693 92.3075 31.1139 92.3075 31.5385V34.6154C92.3075 35.0401 91.9644 35.3847 91.5383 35.3847Z" fill="#1F212B"/>
<path d="M74.4338 35.7985C72.623 36.6032 70.6784 37.1462 68.6338 37.3878C70.7184 36.1385 72.3199 34.1601 73.0753 31.8032C71.123 32.9585 68.963 33.8016 66.663 34.2524C64.8199 32.2908 62.1953 31.0647 59.2892 31.0647C53.7122 31.0647 49.1938 35.5847 49.1938 41.1616C49.1938 41.9524 49.2815 42.7247 49.4538 43.4632C41.0615 43.0416 33.6215 39.0216 28.6399 32.9124C27.7723 34.4047 27.2738 36.1385 27.2738 37.9893C27.2738 41.4939 29.0569 44.5832 31.7646 46.3955C30.1107 46.3416 28.5538 45.8893 27.1923 45.1324C27.1907 45.1739 27.1907 45.2185 27.1907 45.2585C27.1907 50.1524 30.6707 54.2339 35.2907 55.1616C34.4446 55.3908 33.5523 55.5155 32.6307 55.5155C31.9784 55.5155 31.3476 55.4524 30.7323 55.3355C32.0153 59.3447 35.7461 62.2647 40.163 62.3478C36.7092 65.0555 32.3553 66.6724 27.6246 66.6724C26.8092 66.6724 26.0046 66.6247 25.2153 66.5308C29.683 69.3924 34.9907 71.0647 40.6938 71.0647C59.2661 71.0647 69.4245 55.6785 69.4245 42.3339C69.4245 41.897 69.4122 41.4601 69.3938 41.0262C71.3676 39.6032 73.0784 37.8262 74.4338 35.7985Z" fill="#78A1D1"/>
<path d="M40.6937 71.8337C35.0522 71.8337 29.5553 70.2245 24.7999 67.1783C24.4984 66.986 24.3691 66.6091 24.4907 66.2722C24.6122 65.9337 24.9553 65.723 25.3061 65.7676C26.0645 65.8583 26.8445 65.903 27.6245 65.903C31.3814 65.903 34.9599 64.863 38.0799 62.8799C34.3199 62.0783 31.2014 59.326 29.9984 55.5707C29.9153 55.3122 29.9753 55.0291 30.1553 54.826C30.3353 54.6245 30.6137 54.5322 30.8753 54.5799C31.2322 54.6476 31.5845 54.6953 31.9384 54.7214C28.6107 52.8307 26.4214 49.2476 26.4214 45.2599C26.4214 45.2507 26.423 45.1153 26.423 45.106C26.4322 44.8383 26.5814 44.5953 26.8138 44.4645C27.0461 44.3337 27.3307 44.3322 27.5661 44.463C28.0891 44.7537 28.643 44.9937 29.2138 45.1783C27.4861 43.2168 26.5045 40.6737 26.5045 37.9922C26.5045 36.0706 27.0138 34.1814 27.9753 32.5291C28.103 32.3106 28.3276 32.1691 28.5799 32.1491C28.8307 32.1353 29.0768 32.2337 29.2368 32.4307C34.0291 38.3076 41.0137 41.9907 48.5214 42.6322C48.4568 42.1522 48.4261 41.6599 48.4261 41.1645C48.4261 35.1722 53.2999 30.2983 59.2907 30.2983C62.1399 30.2983 64.8953 31.4291 66.9199 33.4168C68.9445 32.9737 70.8814 32.2106 72.6845 31.143C72.9599 30.9799 73.3045 31.003 73.5568 31.203C73.8061 31.403 73.9076 31.7353 73.8091 32.0399C73.3291 33.5368 72.5322 34.8999 71.4845 36.046C72.3845 35.7937 73.266 35.4783 74.123 35.0968C74.4368 34.9599 74.803 35.0445 75.023 35.3045C75.2445 35.566 75.2645 35.943 75.0737 36.2276C73.7368 38.2291 72.0907 39.9691 70.1784 41.406C70.1891 41.7153 70.1953 42.026 70.1953 42.3353C70.1937 56.8353 59.1599 71.8337 40.6937 71.8337ZM28.3707 67.4291C32.1938 69.3122 36.3999 70.2953 40.6937 70.2953C58.1968 70.2953 68.6553 56.0783 68.6553 42.3337C68.6553 41.9076 68.643 41.4799 68.6245 41.0583C68.6137 40.7999 68.7337 40.5537 68.943 40.403C70.1445 39.5368 71.2368 38.5445 72.2091 37.4368C71.0737 37.7722 69.9076 38.0122 68.723 38.1522C68.3676 38.1983 68.0214 37.9799 67.9045 37.6368C67.7876 37.2937 67.926 36.9153 68.2368 36.7291C69.5722 35.9291 70.6737 34.8214 71.4599 33.5137C69.9722 34.1922 68.4153 34.6937 66.8107 35.0091C66.5537 35.0599 66.283 34.9737 66.103 34.7814C64.343 32.9091 61.8599 31.8353 59.2891 31.8353C54.1461 31.8353 49.963 36.0199 49.963 41.163C49.963 41.8922 50.0445 42.6076 50.203 43.2891C50.2584 43.5245 50.1999 43.7707 50.0445 43.9568C49.8891 44.143 49.6507 44.2368 49.4153 44.2322C41.4984 43.8337 34.0507 40.2291 28.803 34.2953C28.303 35.4568 28.043 36.7153 28.043 37.9906C28.043 41.1153 29.5938 44.0183 32.1922 45.7568C32.4784 45.9476 32.603 46.3045 32.4968 46.6307C32.3922 46.9583 32.0845 47.2122 31.7399 47.1645C30.4722 47.1245 29.2122 46.8583 28.0384 46.386C28.5461 50.3691 31.503 53.6168 35.443 54.4076C35.7922 54.4783 36.0491 54.7799 36.0599 55.1368C36.0722 55.4937 35.8368 55.8107 35.4922 55.9045C34.3307 56.2199 33.1291 56.3414 31.923 56.2614C33.4261 59.4214 36.603 61.5122 40.1768 61.5783C40.5014 61.5845 40.7876 61.7953 40.8922 62.103C40.9968 62.4107 40.8937 62.7522 40.6368 62.9522C37.0891 65.7368 32.8614 67.2768 28.3707 67.4291Z" fill="#1F212B"/>
</svg>
