<svg width="48" height="48" viewBox="0 0 48 48" fill="none" xmlns="http://www.w3.org/2000/svg">
<path d="M4.5 9V31.5C4.5 33.15 5.85 34.5 7.5 34.5H40.5C42.15 34.5 43.5 33.15 43.5 31.5V9C43.5 7.35 42.15 6 40.5 6H7.5C5.85 6 4.5 7.35 4.5 9Z" stroke="#314061" stroke-width="2" stroke-miterlimit="10" stroke-linecap="round" stroke-linejoin="round"/>
<path d="M4.5 28.5H43.5" stroke="#314061" stroke-width="2" stroke-miterlimit="10" stroke-linecap="round" stroke-linejoin="round"/>
<path d="M13.5 43.5H34.5" stroke="#314061" stroke-width="2" stroke-miterlimit="10" stroke-linecap="round" stroke-linejoin="round"/>
<path d="M19.5003 34.5C19.5003 37.65 18.4503 41.4 16.8003 43.5" stroke="#314061" stroke-width="2" stroke-miterlimit="10" stroke-linecap="round"/>
<path d="M31.2 43.5C29.55 41.4 28.5 37.65 28.5 34.5" stroke="#314061" stroke-width="2" stroke-miterlimit="10" stroke-linecap="round"/>
<path d="M28.2 24C28.35 23.55 28.5 23.1 28.5 22.5C28.5 19.95 26.55 18 24 18C21.45 18 19.5 19.95 19.5 22.5C19.5 23.1 19.65 23.55 19.8 24" stroke="#314061" stroke-width="2" stroke-miterlimit="10" stroke-linecap="round" stroke-linejoin="round"/>
<path d="M36.4503 24C36.4503 23.55 36.6003 22.95 36.6003 22.5C36.6003 21.45 36.4503 20.55 36.3003 19.65C34.8003 19.8 33.3003 19.2 32.5503 17.7C31.8003 16.35 31.9503 14.7 32.8503 13.5C31.5003 12.15 29.7003 11.1 27.7503 10.5C27.0003 11.85 25.6503 12.9 24.0003 12.9C22.3503 12.9 21.0003 11.85 20.4003 10.5C18.4503 11.1 16.8003 12.15 15.3003 13.5C16.2003 14.7 16.3503 16.35 15.6003 17.7C14.8503 19.05 13.2003 19.8 11.8503 19.65C11.7003 20.55 11.5503 21.6 11.5503 22.5C11.5503 22.95 11.5503 23.55 11.7003 24" stroke="#314061" stroke-width="2" stroke-miterlimit="10" stroke-linecap="round" stroke-linejoin="round"/>
</svg>
